<svg xmlns="http://www.w3.org/2000/svg" xmlns:xlink="http://www.w3.org/1999/xlink" viewBox="0 0 426.34 358.26" style="max-width: 350px"><defs><radialGradient xlink:href="#a" id="b" cx="204.87" cy="-243.96" r="25.72" fx="204.87" fy="-243.96" gradientTransform="rotate(242.87 188.56 -53.45)scale(.7444 1.2642)" gradientUnits="userSpaceOnUse" spreadMethod="pad"/><linearGradient id="a"><stop offset="0" stop-color="#656f71"/><stop offset="1" stop-color="#d3d4cf"/></linearGradient></defs><path fill="#45475a" d="M389.64 124h6.25v186.1h-6.25z"/><path fill="#ccc" d="M362.2 224h61.14v40h-61.15z"/><path fill="#45475a" d="M242.06 252.41h6.25v77.86h-6.25zM201.82 124h6.25v100h-6.25zm102.91 0h6.25v100h-6.25zm-241.6 0h6.25v197.42h-6.25z"/><path fill="#5fbcd3" d="M4 4h418.08v50H4zm0 70h418.17v50H4z"/><path fill="#5fd3bc" d="M4 164h124.5v40H4zm0 60h124.5v40H4z"/><path fill="#ffd42a" d="M147.65 164h114.6v40h-114.6zm125.21 0h70v40h-70z"/><path fill="#ccc" d="M362.2 164h61.14v40h-61.15z"/><path fill="#ffd42a" d="M147.65 224H342.7v40H147.65z"/><path d="M22.21 236.64h2l3.06 12.32 3.06-12.32h2.21l3.07 12.32 3.06-12.32h2l-3.66 14.58h-2.48l-3.08-12.66-3.1 12.66h-2.48zm20.99 3.64H45v10.94h-1.8zm0-4.26H45v2.28h-1.8zm14.64 8.6v6.6h-1.8v-6.55q0-1.54-.6-2.32t-1.82-.77q-1.46 0-2.3.93a3.6 3.6 0 0 0-.84 2.53v6.18h-1.8v-10.94h1.8v1.7A4.4 4.4 0 0 1 52 240.5a4 4 0 0 1 2.02-.48q1.88 0 2.85 1.17.97 1.16.97 3.43m10.8-2.68v-5.92h1.8v15.2h-1.8v-1.64a4 4 0 0 1-1.44 1.45q-.86.47-2.07.47-1.98 0-3.23-1.58a6.6 6.6 0 0 1-1.24-4.16q0-2.57 1.24-4.16a4 4 0 0 1 3.23-1.58q1.21 0 2.07.47.87.48 1.44 1.45m-6.12 3.82q0 1.98.8 3.11.83 1.13 2.25 1.13t2.25-1.13q.82-1.13.82-3.11 0-1.99-.82-3.1a2.6 2.6 0 0 0-2.25-1.14q-1.43 0-2.24 1.13a5.2 5.2 0 0 0-.81 3.1m15.85-4.21a2.7 2.7 0 0 0-2.28 1.13 5 5 0 0 0-.84 3.09q0 1.96.83 3.1a2.7 2.7 0 0 0 2.3 1.12q1.43 0 2.27-1.14.84-1.13.84-3.08 0-1.94-.84-3.08a2.7 2.7 0 0 0-2.28-1.14m0-1.52q2.35 0 3.69 1.52t1.33 4.22-1.33 4.22a4.7 4.7 0 0 1-3.69 1.52q-2.35 0-3.69-1.52-1.32-1.54-1.32-4.22 0-2.7 1.32-4.22a4.7 4.7 0 0 1 3.7-1.52m6.94.26h1.8l2.24 8.53 2.24-8.53h2.12l2.24 8.53 2.24-8.53h1.8l-2.87 10.94h-2.11l-2.36-8.97-2.36 8.97h-2.12zm24.38.32v1.7a7 7 0 0 0-3.28-.78q-1.33 0-2.01.41-.66.4-.66 1.23 0 .63.47.99.48.35 1.93.67l.61.14q1.91.4 2.72 1.16.8.75.8 2.08 0 1.53-1.2 2.41-1.2.9-3.31.89-.88 0-1.84-.18-.95-.16-2-.5v-1.86q1 .52 1.96.78.98.26 1.92.26 1.27 0 1.95-.43.69-.44.68-1.23 0-.75-.5-1.13a6 6 0 0 0-2.15-.75l-.63-.15a5 5 0 0 1-2.41-1.07 2.7 2.7 0 0 1-.74-2q0-1.54 1.1-2.38a5 5 0 0 1 3.1-.84q1 0 1.87.14.89.15 1.62.44m109.84-3.96h1.97v12.92h7.1v1.66h-9.07zm11.05 3.64h1.8v10.94h-1.8zm0-4.26h1.8v2.28h-1.8zm14.64 8.6v6.6h-1.8v-6.55q0-1.54-.6-2.32t-1.82-.77q-1.45 0-2.3.93a3.6 3.6 0 0 0-.83 2.53v6.18h-1.81v-10.94h1.8v1.7a4.4 4.4 0 0 1 1.52-1.48 4 4 0 0 1 2.02-.48q1.88 0 2.85 1.17.97 1.16.97 3.43m3.42 2.28v-6.62h1.8v6.55q0 1.56.6 2.34t1.82.77q1.45 0 2.3-.93a3.6 3.6 0 0 0 .84-2.53v-6.2h1.8v10.94H256v-1.68a4.5 4.5 0 0 1-1.52 1.48q-.87.48-2 .48-1.9 0-2.87-1.17-.97-1.18-.97-3.43m21.97-6.62-3.96 5.32 4.17 5.62h-2.12l-3.19-4.3-3.18 4.3h-2.12l4.25-5.73-3.89-5.21h2.12l2.9 3.9 2.9-3.9zm20-63.64h2.12l3.63 5.42 3.64-5.42h2.12l-4.69 7 5 7.58h-2.12l-4.1-6.2-4.13 6.2h-2.13l5.2-7.79zm14.34-.6h1.8v15.19h-1.8zm5.55 4.26h1.8v10.94h-1.8zm0-4.26h1.8v2.28h-1.8zm13.4 9.74q0-1.99-.83-3.1a2.6 2.6 0 0 0-2.23-1.14q-1.43 0-2.25 1.13a5.2 5.2 0 0 0-.8 3.1q0 2 .8 3.12.82 1.13 2.25 1.13t2.23-1.13q.83-1.13.83-3.11m-6.12-3.82a3.7 3.7 0 0 1 3.5-1.92q1.99 0 3.23 1.58a6.5 6.5 0 0 1 1.25 4.16q0 2.58-1.25 4.16a4 4 0 0 1-3.23 1.58q-1.2 0-2.07-.47a4 4 0 0 1-1.43-1.45v1.64h-1.8v-15.2h1.8zm-285.28-3.7v11.34h2.37q3.03 0 4.42-1.37t1.4-4.32q0-2.93-1.4-4.28-1.4-1.37-4.42-1.37zm-1.97-1.62h4.05q4.24 0 6.22 1.76 1.98 1.77 1.98 5.51 0 3.78-1.99 5.54-2 1.77-6.2 1.77h-4.06zm15.31 3.64h1.8v10.94h-1.8zm0-4.26h1.8v2.28h-1.8zm11.89 5.94q-.3-.18-.67-.25-.35-.1-.78-.1-1.53 0-2.34 1-.81.98-.81 2.85v5.76H51.3v-10.94h1.8v1.7q.58-1 1.48-1.48a4.6 4.6 0 0 1 3.12-.39zM69 185.3v.88h-8.3a4.2 4.2 0 0 0 1.12 2.83q1 .97 2.79.97 1.04 0 2-.26a9 9 0 0 0 1.94-.76v1.7a11 11 0 0 1-4.05.84q-2.62 0-4.15-1.52a5.6 5.6 0 0 1-1.52-4.12q0-2.7 1.44-4.26a5 5 0 0 1 3.92-1.58q2.2 0 3.49 1.42a5.5 5.5 0 0 1 1.29 3.86m-1.8-.53a3.4 3.4 0 0 0-.83-2.35 2.7 2.7 0 0 0-2.13-.88q-1.5 0-2.41.85a3.6 3.6 0 0 0-1.04 2.4zm12.63-4.07v1.68a7 7 0 0 0-3.08-.84 3.4 3.4 0 0 0-2.71 1.11 4.6 4.6 0 0 0-.97 3.1q0 2.01.97 3.12.96 1.1 2.71 1.1a6 6 0 0 0 3.08-.83v1.66a7.4 7.4 0 0 1-3.28.7 5.1 5.1 0 0 1-3.92-1.55 6 6 0 0 1-1.46-4.2q0-2.67 1.47-4.2a5.3 5.3 0 0 1 4.03-1.53 7.5 7.5 0 0 1 3.16.68m4.92-3.53v3.1h3.7v1.4h-3.7v5.94q0 1.35.36 1.72.37.39 1.5.38h1.84v1.5h-1.85q-2.07 0-2.87-.76-.78-.79-.79-2.84v-5.93H81.6v-1.4h1.32v-3.1zm5.46-.54h2.12l3.62 5.42 3.64-5.42h2.12l-4.69 7 5 7.58h-2.12l-4.1-6.2-4.13 6.2H89.5l5.2-7.79z" style="text-align:center"/><path fill="#45475a" d="M209.91 54h6.25v20h-6.25z"/><text xml:space="preserve" x="85.32" y="36.45" font-family="Arial" font-size="24" font-weight="400" letter-spacing="0" style="line-height:125%" word-spacing="0"><tspan x="85.32" y="36.45">Application (Multimedia)</tspan></text><path fill="#c87049" d="M4 304.26h418.17v50H4z"/><text xml:space="preserve" x="160.55" y="335.57" font-family="Arial" font-size="24" font-weight="400" letter-spacing="0" style="line-height:125%" word-spacing="0"><tspan x="160.55" y="335.57">Hardware</tspan></text><text xml:space="preserve" x="377.29" y="250.88" font-family="Arial" font-size="20" font-weight="400" letter-spacing="0" style="line-height:125%" word-spacing="0"><tspan x="377.29" y="250.88">etc.</tspan></text><text xml:space="preserve" x="377.15" y="190.88" font-family="Arial" font-size="20" font-weight="400" letter-spacing="0" style="line-height:125%" word-spacing="0"><tspan x="377.15" y="190.88">etc.</tspan></text><text xml:space="preserve" x="153.56" y="190.88" font-family="Arial" font-size="20" font-weight="400" letter-spacing="0" style="line-height:125%" word-spacing="0"><tspan x="153.56" y="190.88">framebuffer</tspan></text><text xml:space="preserve" x="188.59" y="103.32" font-family="Arial" font-size="24" font-weight="400" letter-spacing="0" style="line-height:125%" transform="translate(14.07 2)" word-spacing="0"><tspan x="188.59" y="103.32"> Library</tspan></text><path fill="url(#b)" d="M-48.54 104.93c-6.8-.23-13.28-1.77-18.31-4.35-.48-.25-1.51-.82-1.51-.84l.36.17a37 37 0 0 0 8.69 3.02 51 51 0 0 0 15.71.83 43 43 0 0 0 13.73-3.6c3.6-1.69 6.48-3.83 8.4-6.26 2.95-3.73 3.34-8.06 1.09-11.9-1.47-2.48-3.9-4.68-7.25-6.5l-.56-.33c.04 0 1.46.69 1.9.92a23 23 0 0 1 5.39 3.82 13 13 0 0 1 3.65 5.8 10 10 0 0 1-.28 5.97c-.96 2.55-2.93 4.9-5.8 6.94-4.68 3.3-11.37 5.5-18.79 6.14-2.01.18-4.38.24-6.42.17" transform="translate(217.8 13.27)scale(.974)"/><path fill="#173556" d="M-31.58 96.18h-.04l-.07-.01h-.1l-.15.01-.15.05v.89h-.44v-1.33h.44v.19l.18-.13.23-.07h.1zm-1.6.98a1 1 0 0 1-.6-.18.6.6 0 0 1-.22-.52q0-.34.2-.52.2-.2.55-.2.33 0 .49.17t.16.47v.15h-.96q0 .1.04.16l.1.1.13.05a.8.8 0 0 0 .62-.14h.04v.35l-.22.07a1 1 0 0 1-.33.04m.15-.88a.3.3 0 0 0-.07-.2q-.06-.07-.18-.07a.3.3 0 0 0-.2.07.3.3 0 0 0-.08.2zm-.88-.5-.7 1.83h-.48l.22-.52-.52-1.3h.46l.3.83.27-.83zm-1.91 1v-.29l-.32.05-.09.06-.03.1q0 .1.05.13.06.04.16.04l.12-.03zm0 .2-.08.06-.1.06-.11.04-.16.02a.4.4 0 0 1-.31-.12.4.4 0 0 1-.12-.3q0-.15.06-.24t.18-.15a1 1 0 0 1 .28-.07l.36-.04q0-.12-.09-.16a1 1 0 0 0-.44-.02l-.2.08h-.04v-.33a2 2 0 0 1 .5-.06q.37 0 .54.11.15.12.16.35v.91h-.43zm-.82.14h-1.24v-1.77h.46v1.43h.78zm-2.47-.35v-.28l-.32.05-.09.06-.03.1q0 .1.05.13.07.04.16.04l.12-.03zm0 .2-.08.07-.1.06-.11.04-.16.02a.4.4 0 0 1-.3-.12.4.4 0 0 1-.13-.3q0-.15.06-.24t.18-.15a1 1 0 0 1 .28-.07l.36-.04q0-.12-.09-.16a1 1 0 0 0-.44-.02l-.2.08h-.03v-.33a2 2 0 0 1 .5-.06q.36 0 .53.11.16.12.16.35v.91h-.43zm-.96.15h-.44v-1.33h.44zm.01-1.52h-.46v-.33h.46zm-.63 1.52h-.44v-.14l-.19.13-.1.04h-.12a.5.5 0 0 1-.38-.18 1 1 0 0 1-.14-.5q0-.18.04-.31l.13-.22a.6.6 0 0 1 .42-.2l.18.03.16.07v-.57h.44zm-.44-.37v-.65l-.08-.03h-.09q-.15 0-.24.1a.5.5 0 0 0-.08.29q0 .2.07.28.05.1.2.1l.12-.03zm-1.48.4a1 1 0 0 1-.61-.17.6.6 0 0 1-.21-.52q0-.34.2-.52.2-.2.55-.2.31 0 .48.17t.17.47v.15H-43q0 .1.04.16.03.06.09.1l.13.05a.8.8 0 0 0 .62-.14h.05v.35l-.22.07a1 1 0 0 1-.33.04m.14-.87a.3.3 0 0 0-.06-.2q-.06-.07-.19-.07a.3.3 0 0 0-.2.07.3.3 0 0 0-.08.2zm-1.47.84v-.83l-.03-.11-.06-.07-.1-.02q-.06 0-.1.03l-.11.05v.95h-.44v-.83l-.03-.11-.06-.07-.1-.02q-.06 0-.11.03l-.1.05v.95h-.44V95.8h.44v.14l.2-.13.21-.05q.14 0 .23.06.1.06.15.17.12-.1.24-.17a.5.5 0 0 1 .4-.03q.08.03.13.09.06.07.09.15.03.1.03.23v.87zm-2.05.03q-.27 0-.4-.1-.12-.12-.12-.35v-.62h-.16v-.3h.16v-.38h.44v.39h.42v.29h-.42v.47l.02.22.06.06q.05.03.13.03l.1-.02.08-.03h.03v.3a1 1 0 0 1-.34.04m-1.05 0q-.17.01-.32-.04l-.25-.12-.16-.22a1 1 0 0 1-.06-.31q0-.2.06-.33a.6.6 0 0 1 .42-.34 1 1 0 0 1 .76.07v.35h-.05l-.15-.1-.1-.04-.14-.02q-.17 0-.26.11a.5.5 0 0 0-.1.3q0 .2.1.3t.27.1l.25-.06.07-.06.06-.04h.05v.35l-.18.07zm-1.34 0a1 1 0 0 1-.6-.17.6.6 0 0 1-.22-.52q0-.33.2-.52.2-.2.55-.2.33 0 .49.17t.16.47v.15h-.96q0 .1.04.16l.1.1.13.05a.8.8 0 0 0 .62-.14h.05v.35l-.22.07a1 1 0 0 1-.34.04m.15-.87a.3.3 0 0 0-.07-.2q-.06-.06-.18-.07a.3.3 0 0 0-.2.07.3.3 0 0 0-.08.2zm-.88-.1h-.04l-.07-.01h-.1l-.15.01-.15.05v.9h-.43v-1.34h.43V96l.18-.13.24-.07h.09zm-1.13.94h-.43V95.8h.43zm.02-1.52h-.47v-.33h.47zm-.55.64a.9.9 0 0 1-.4.74q-.15.09-.32.12l-.36.02h-.58v-1.77h.57q.2 0 .37.03a.83.83 0 0 1 .72.86m-.48 0a1 1 0 0 0-.06-.3.5.5 0 0 0-.4-.25h-.25v1.1h.27q.1-.01.2-.07.12-.06.18-.19a1 1 0 0 0 .06-.3m-2.45.92a1 1 0 0 1-.61-.18.6.6 0 0 1-.21-.52q0-.33.2-.52.18-.2.55-.2.31 0 .48.17.15.17.16.47v.15h-.96q0 .1.05.16.03.06.09.1l.13.05a.8.8 0 0 0 .62-.14h.05v.35l-.22.07a1 1 0 0 1-.33.04m.14-.88a.3.3 0 0 0-.06-.2q-.06-.06-.19-.07a.3.3 0 0 0-.2.07.3.3 0 0 0-.08.2zm-1.04.84h-.44v-1.85h.44zm-.52-.68q0 .3-.17.51a.5.5 0 0 1-.42.2 1 1 0 0 1-.35-.1v.56h-.44V95.8h.44v.14q.1-.09.2-.13l.23-.05q.24 0 .37.18.15.2.14.5m-.45 0q0-.2-.06-.28-.07-.09-.2-.09l-.12.02-.11.05v.68l.08.02h.1q.15 0 .23-.1.08-.09.08-.3m-1.54.68v-.83l-.03-.11-.06-.06-.1-.02q-.06 0-.1.02l-.11.06v.94h-.44v-.83l-.03-.11-.06-.06-.1-.02q-.06 0-.11.02l-.1.06v.94h-.44V95.8h.44v.14l.2-.13.21-.05q.15 0 .23.06.1.06.15.17.12-.1.24-.17a.5.5 0 0 1 .4-.03q.08.03.13.09.06.07.09.15.03.1.03.23v.87zm-1.86 0h-.44V95.8h.44zm.01-1.52h-.46v-.33h.46zm-1.32 1.55a2 2 0 0 1-.67-.13v-.42h.04a1 1 0 0 0 .64.23h.1l.1-.03.09-.06a.1.1 0 0 0 .03-.1.1.1 0 0 0-.05-.1l-.13-.07-.4-.1a.6.6 0 0 1-.32-.19.5.5 0 0 1-.1-.3q0-.25.23-.4.22-.16.55-.16a2 2 0 0 1 .63.12v.4h-.04a1 1 0 0 0-.56-.2l-.11.01-.1.03-.08.06-.03.08q0 .07.05.11t.2.07l.17.04.19.05q.19.07.29.18.1.12.1.3a.5.5 0 0 1-.23.42 1 1 0 0 1-.59.16" font-family="Tahoma" font-size="18.92" font-weight="700" style="-inkscape-font-specification:Tahoma-Bold" transform="translate(217.8 13.27)scale(.974)"/><path fill="#173556" d="M-31.68 94.15H-43.7V77.03h4.52v13.85h7.5zm-13.2-8.54a8.4 8.4 0 0 1-3.89 7.18q-1.4.86-3.05 1.1-1.65.26-3.52.26h-5.64V77.03h5.6q1.9 0 3.55.23a8.04 8.04 0 0 1 6.95 8.35m-4.65-.04q0-1.69-.61-2.89a4.6 4.6 0 0 0-3.81-2.4q-1-.05-2.42-.05h-.08v10.7h.08q1.53.01 2.58-.04t1.99-.62a4.4 4.4 0 0 0 1.69-1.84 6.4 6.4 0 0 0 .58-2.86m-20.08 8.89a16 16 0 0 1-6.54-1.33v-4.06h.4a10.3 10.3 0 0 0 6.17 2.26q.38 0 1.02-.08a4 4 0 0 0 1.02-.25q.47-.2.8-.55t.33-.92q0-.65-.54-1.05a4 4 0 0 0-1.27-.59q-.92-.23-1.96-.43-1.05-.21-1.96-.5a6 6 0 0 1-3-1.9q-.9-1.17-.9-2.96-.01-2.4 2.14-3.89a9 9 0 0 1 5.34-1.49 17 17 0 0 1 6.05 1.15v3.9h-.4a9 9 0 0 0-5.42-1.93q-.6 0-1.06.08-.48.08-1 .3a2 2 0 0 0-.72.55q-.31.38-.31.81 0 .66.49 1.04.48.4 1.89.7l1.75.38q.84.18 1.8.5 1.88.65 2.78 1.73.92 1.09.92 2.87 0 2.55-2.11 4.1-2.12 1.56-5.7 1.56" font-family="Tahoma" font-size="183.04" font-weight="700" style="-inkscape-font-specification:Tahoma-Bold" transform="translate(217.8 13.27)scale(.974)"/><path fill="#173556" fill-rule="evenodd" d="M157.15 112.66q-.18.02-.2.17.02.16.2.17c.1 0 .2-.08.2-.17s-.1-.17-.2-.17m8.42 1.53c-.17 0-.3.12-.3.26s.13.27.3.27.3-.12.3-.27c0-.14-.13-.26-.3-.26m-4.37-.58c-.14 0-.25.1-.25.21 0 .12.11.22.25.22s.25-.1.25-.22-.11-.21-.25-.21m9.16.75c-.22 0-.39.15-.39.33s.17.33.39.33c.2 0 .38-.14.38-.33 0-.18-.17-.33-.38-.33m4.94-.26c-.27 0-.48.19-.48.42s.21.41.48.41c.26 0 .48-.18.48-.41s-.22-.42-.48-.42m4.95-.84c-.33 0-.6.23-.6.52 0 .28.27.52.6.52.34 0 .6-.24.6-.52 0-.3-.26-.52-.6-.52m4.96-1.55c-.41 0-.75.29-.75.65s.34.65.75.65c.42 0 .75-.3.75-.65s-.33-.65-.75-.65m4.75-2.06c-.46 0-.83.32-.83.72s.37.72.83.72.83-.32.83-.72-.37-.72-.83-.72m4.33-2.97c-.51 0-.93.36-.93.8s.42.8.93.8c.5 0 .92-.35.92-.8 0-.44-.41-.8-.92-.8m3.57-4.17c-.67 0-1.2.47-1.2 1.05 0 .57.53 1.04 1.2 1.04s1.2-.47 1.2-1.04-.54-1.05-1.2-1.05m1.53-4.32c-.51 0-.93.36-.93.8s.42.8.93.8.93-.35.93-.8c0-.44-.42-.8-.93-.8m-.52-2.7c.37 0 .66-.26.66-.57 0-.32-.3-.58-.66-.58s-.66.26-.66.58.3.57.66.57m-1.61-3.12c.26 0 .47-.18.47-.4s-.21-.42-.47-.42-.47.19-.47.41c0 .23.2.41.47.41m-1.78-2.61c-.17 0-.31.12-.31.27s.14.27.31.27c.18 0 .32-.12.32-.27s-.14-.27-.32-.27m-1.89-1.07q.2-.02.21-.19c.01-.17-.1-.18-.2-.18q-.2.01-.22.18c0 .1.1.19.21.19"/></svg>
