<?xml version="1.0" encoding="UTF-8" standalone="no"?>
<!-- Created with Inkscape (http://www.inkscape.org/) -->

<svg
   width="1920"
   height="1080"
   viewBox="0 0 508 285.75001"
   version="1.1"
   id="svg1"
   inkscape:version="1.4.2 (ebf0e940d0, 2025-05-08)"
   sodipodi:docname="wave.svg"
   inkscape:export-filename="wave.png"
   inkscape:export-xdpi="96"
   inkscape:export-ydpi="96"
   xmlns:inkscape="http://www.inkscape.org/namespaces/inkscape"
   xmlns:sodipodi="http://sodipodi.sourceforge.net/DTD/sodipodi-0.dtd"
   xmlns="http://www.w3.org/2000/svg"
   xmlns:svg="http://www.w3.org/2000/svg">
  <sodipodi:namedview
     id="namedview1"
     pagecolor="#ffffff"
     bordercolor="#000000"
     borderopacity="0.25"
     inkscape:showpageshadow="2"
     inkscape:pageopacity="0.0"
     inkscape:pagecheckerboard="0"
     inkscape:deskcolor="#d1d1d1"
     inkscape:document-units="mm"
     inkscape:zoom="0.12340292"
     inkscape:cx="425.43565"
     inkscape:cy="1280.3587"
     inkscape:window-width="1258"
     inkscape:window-height="672"
     inkscape:window-x="0"
     inkscape:window-y="0"
     inkscape:window-maximized="1"
     inkscape:current-layer="layer1" />
  <defs
     id="defs1" />
  <g
     inkscape:label="Layer 1"
     inkscape:groupmode="layer"
     id="layer1">
    <desc
       id="desc1">
    Waving Hand Streamline Emoji: https://streamlinehq.com
  </desc>
    <g
       id="g1"
       transform="matrix(21.037743,0,0,21.037743,-1454.7305,-2529.0223)">
      <path
         fill="#ef9645"
         d="m 78.136985,124.91791 c 0.221074,-0.15452 0.554332,-0.12489 0.752828,0.039 L 78.662154,124.626 c -0.18321,-0.26129 -0.117593,-0.54398 0.143933,-0.72743 0.261526,-0.18274 1.002594,0.30857 1.002594,0.30857 -0.184855,-0.26388 -0.150283,-0.59832 0.113595,-0.78341 0.263878,-0.18438 0.627944,-0.12065 0.8128,0.1437 l 2.45063,3.46193 -0.312326,3.02801 -2.606558,-0.95062 -2.273535,-3.37091 c -0.186502,-0.26552 -0.122061,-0.63171 0.143698,-0.81797 z"
         stroke-width="0.235188"
         id="path1" />
      <path
         fill="#ffdc5d"
         d="m 77.627574,126.84384 c 0,0 -0.26623,-0.38806 0.122061,-0.65405 0.387821,-0.266 0.653815,0.12182 0.653815,0.12182 l 1.234957,1.80105 c 0.04257,-0.071 0.08914,-0.14111 0.141111,-0.21025 l -1.714029,-2.49932 c 0,0 -0.265995,-0.38782 0.122061,-0.65381 0.38782,-0.266 0.653815,0.12182 0.653815,0.12182 l 1.612194,2.35115 c 0.05997,-0.0489 0.121356,-0.0981 0.184621,-0.14629 l -1.869017,-2.72603 c 0,0 -0.265995,-0.38782 0.122061,-0.65381 0.38782,-0.266 0.653815,0.12182 0.653815,0.12182 l 1.869017,2.72557 c 0.06867,-0.0421 0.136642,-0.0786 0.204846,-0.11713 l -1.746956,-2.54752 c 0,0 -0.265994,-0.38782 0.121826,-0.65382 0.387821,-0.26599 0.653815,0.12183 0.653815,0.12183 l 1.847144,2.69381 0.280812,0.40969 c -1.163697,0.79822 -1.274469,2.29988 -0.6096,3.26955 0.132879,0.19402 0.326907,0.0611 0.326907,0.0611 -0.797983,-1.16393 -0.554332,-2.47179 0.6096,-3.26977 l -0.343135,-1.71733 c 0,0 -0.128176,-0.45249 0.324085,-0.5809 0.452496,-0.12818 0.580907,0.32432 0.580907,0.32432 l 0.396287,1.17686 c 0.157104,0.46661 0.324321,0.93157 0.54563,1.37137 0.624887,1.24178 0.251648,2.78506 -0.92663,3.59339 -1.285287,0.88124 -3.042355,0.55363 -3.923829,-0.73142 z"
         stroke-width="0.235188"
         id="path2" />
      <g
         fill="#5dadec"
         id="g5"
         transform="matrix(0.26458333,0,0,0.26458333,76.99375,122.76667)">
        <path
           d="m 10.666667,28.481778 c -3.5555559,0 -7.1484448,-3.592889 -7.1484448,-7.148445 0,-0.491555 -0.36,-0.888889 -0.8515555,-0.888889 -0.4915556,0 -0.9262223,0.397334 -0.9262223,0.888889 0,5.333334 3.5928889,8.926223 8.9262226,8.926223 0.491555,0 0.888889,-0.434667 0.888889,-0.926223 0,-0.491555 -0.397334,-0.851555 -0.888889,-0.851555 z"
           stroke-width="0.8889"
           id="path3" />
        <path
           d="m 6.2222222,30.222222 c -2.6666666,0 -4.4444444,-1.777778 -4.4444444,-4.444444 0,-0.491556 -0.3973334,-0.888889 -0.88888891,-0.888889 C 0.39733333,24.888889 0,25.286222 0,25.777778 0,29.333333 2.6666667,32 6.2222222,32 c 0.4915556,0 0.8888889,-0.397333 0.8888889,-0.888889 0,-0.491555 -0.3973333,-0.888889 -0.8888889,-0.888889 z M 21.333333,1.7777778 c -0.490666,0 -0.888889,0.3982222 -0.888889,0.8888889 0,0.4906666 0.398223,0.8888889 0.888889,0.8888889 3.555556,0 7.111111,3.1902222 7.111111,7.1111114 0,0.490666 0.398223,0.888889 0.888889,0.888889 0.490667,0 0.888889,-0.398223 0.888889,-0.888889 0,-4.9013337 -3.555555,-8.8888892 -8.888889,-8.8888892 z"
           stroke-width="0.8889"
           id="path4" />
        <path
           d="m 25.777778,0.03733333 c -0.490667,0 -0.888889,0.36088889 -0.888889,0.85155556 0,0.49066671 0.398222,0.92622221 0.888889,0.92622221 2.666666,0 4.407111,1.9777778 4.407111,4.4071111 0,0.4906667 0.434667,0.8888889 0.926222,0.8888889 0.491556,0 0.851556,-0.3982222 0.851556,-0.8888889 0,-3.4106666 -2.629334,-6.18488887 -6.184889,-6.18488887 z"
           stroke-width="0.8889"
           id="path5" />
      </g>
    </g>
  </g>
</svg>
